<?xml version="1.0" encoding="UTF-8"?>
<svg version="1.1" xmlns="http://www.w3.org/2000/svg" width="1002" height="451">
<path d="M0 0 C330.66 0 661.32 0 1002 0 C1002 148.83 1002 297.66 1002 451 C671.34 451 340.68 451 0 451 C0 302.17 0 153.34 0 0 Z " fill="#6D276D" transform="translate(0,0)"/>
<path d="M0 0 C2.01626992 1.87908856 4.01004194 3.78061785 6 5.6875 C6.50563477 6.16590332 7.01126953 6.64430664 7.53222656 7.13720703 C41.17913822 39.08575076 59.44777403 84.3289633 61.31640625 130.328125 C62.35651983 171.32987514 49.55398827 213.29896546 24 245.6875 C23.57638184 246.22536133 23.15276367 246.76322266 22.71630859 247.31738281 C-7.59138459 285.31883038 -50.65638518 309.77501545 -98.93408203 315.86206055 C-146.08873522 321.02437794 -192.31228979 308.49101053 -230 279.6875 C-230.89460938 279.0171875 -231.78921875 278.346875 -232.7109375 277.65625 C-260.79451706 255.72913083 -280.48109187 226.16638369 -292 192.6875 C-292.22816406 192.04345215 -292.45632813 191.3994043 -292.69140625 190.73583984 C-306.58455242 151.24953369 -304.81745054 102.62465592 -287 64.6875 C-286.43050356 63.38880347 -285.86293846 62.08925903 -285.296875 60.7890625 C-274.95524685 37.4550737 -258.82065711 14.91339567 -239 -1.3125 C-237.95689423 -2.20296451 -236.91393875 -3.09360511 -235.87109375 -3.984375 C-221.75901205 -15.84454958 -205.95251607 -25.11934524 -189 -32.3125 C-188.0203125 -32.74820313 -187.040625 -33.18390625 -186.03125 -33.6328125 C-124.67175015 -59.30691902 -48.75379607 -44.50986861 0 0 Z " fill="#EB681F" transform="translate(407,90.3125)"/>
<path d="M0 0 C6.88735129 4.68577896 9.6886168 11.91465056 13 19.25 C13.52440674 20.39887695 14.04881348 21.54775391 14.58911133 22.73144531 C18.95922423 32.35749604 23.16548534 42.0530505 27.34228516 51.7644043 C32.93160254 64.74571134 38.71199782 77.64042864 44.50379944 90.53240967 C45.17729937 92.03390567 45.84898183 93.53621831 46.51878357 95.03936768 C48.2576662 98.93713698 50.02891613 102.81512761 51.85302734 106.67382812 C52.22497726 107.47435608 52.59692719 108.27488403 52.98014832 109.09967041 C53.68609798 110.61823852 54.40350076 112.13155936 55.13471985 113.63812256 C57.64504134 119.09027601 58.74009206 124.09551947 56.86328125 130.01953125 C54.52798893 133.81322748 52.77766694 136.28786515 48.5625 137.8125 C44.75066241 138.39166292 41.32624468 138.70550645 37.5625 137.8125 C30.5625 131.8125 30.5625 131.8125 19.5625 106.8125 C-0.2375 106.8125 -20.0375 106.8125 -40.4375 106.8125 C-44.0675 115.0625 -47.6975 123.3125 -51.4375 131.8125 C-59.57867265 138.79064799 -59.57867265 138.79064799 -66.7734375 138.4140625 C-71.03877735 137.45092124 -73.69730595 135.13864749 -76.4375 131.8125 C-78.57703703 127.53342593 -78.04039195 121.97126113 -76.78082275 117.46115112 C-75.83722608 115.07038611 -74.79601425 112.75620123 -73.6953125 110.43359375 C-73.10271133 109.12351601 -73.10271133 109.12351601 -72.49813843 107.78697205 C-71.20309247 104.93329325 -69.88279197 102.09207404 -68.5625 99.25 C-67.64962335 97.24850113 -66.73884566 95.24604371 -65.83007812 93.24267578 C-63.96004531 89.12244 -62.08241686 85.00579367 -60.20019531 80.89111328 C-56.39839739 72.55507766 -52.72787266 64.16235828 -49.06381226 55.7651062 C-47.94401762 53.2024158 -46.81924977 50.64197056 -45.69262695 48.08227539 C-42.67718556 41.22931892 -39.66564358 34.37602271 -36.73867798 27.48471069 C-35.91948644 25.55867325 -35.09377356 23.63557967 -34.265625 21.71337891 C-33.29746417 19.46109496 -32.34174379 17.20339544 -31.40234375 14.93896484 C-28.31253073 7.80079454 -24.81927134 2.18404341 -17.83203125 -1.59765625 C-11.65980817 -3.11805704 -5.57545962 -3.32021753 0 0 Z " fill="#6E276C" transform="translate(224.4375,153.1875)"/>
<path d="M0 0 C4.25444842 1.62274416 7.73787252 3.97844004 10 8 C11.23649309 11.69816803 11.13825528 15.30567132 11.15771484 19.18017578 C11.16533592 20.25423424 11.16533592 20.25423424 11.17311096 21.34999084 C11.18379336 22.90230216 11.19242186 24.45462868 11.19923019 26.00696182 C11.21106406 28.47167101 11.23053082 30.93620849 11.25234985 33.40084839 C11.31379675 40.40779825 11.36786496 47.41473135 11.40136719 54.421875 C11.42243 58.71252448 11.4578287 63.00286144 11.50212479 67.29333115 C11.51619737 68.92060518 11.52498727 70.54793451 11.52817917 72.17526627 C11.5569423 85.44171996 12.55492667 97.34811908 22.25 107.3125 C30.33890289 112.27614495 38.63114072 112.96662834 48 112 C53.59931498 110.5519013 59.03982182 108.29962203 63 104 C67.25994163 96.74232167 69.14824894 90.99804108 69.1418457 82.60449219 C69.14705734 81.49635414 69.14705734 81.49635414 69.15237427 80.36582947 C69.15971433 78.7643992 69.16506902 77.16295886 69.16866493 75.56151581 C69.17585237 73.02174213 69.19153661 70.4821592 69.21000671 67.94244385 C69.26236401 60.7222355 69.31042328 53.50213234 69.32592773 46.28173828 C69.33604073 41.86136076 69.36544843 37.44146506 69.40724754 33.02127838 C69.41951494 31.34211124 69.42468662 29.66287593 69.42244911 27.98366547 C69.40450621 10.12069308 69.40450621 10.12069308 76.1875 2.5625 C80.73077569 0.03845795 85.14723683 -0.80861773 90.21875 0.62890625 C95.10280394 2.80668403 97.33070017 5.27328828 100 10 C100.3799414 12.75433545 100.54891853 15.10212388 100.51757812 17.84692383 C100.5245874 18.61053223 100.53159668 19.37414062 100.53881836 20.16088867 C100.55636636 22.67664408 100.54477472 25.19126498 100.53125 27.70703125 C100.53394889 29.47377231 100.53783461 31.24051191 100.54284668 33.00724792 C100.54873999 36.71355303 100.54019563 40.41947228 100.52148438 44.12573242 C100.49887862 48.82793213 100.51170088 53.52920914 100.53577423 58.23137379 C100.55039503 61.88564187 100.54554966 65.5397002 100.53526306 69.19397545 C100.53263077 70.92435507 100.53573932 72.65475499 100.54518127 74.38511086 C100.62389545 92.88944105 98.18428786 111.02658045 85.0390625 125.15625 C72.46229014 136.52835068 57.26228409 140.39865105 40.75 140.3125 C39.64261475 140.30758545 38.53522949 140.3026709 37.39428711 140.29760742 C20.78759959 140.05947932 7.22321308 135.66761249 -5 124 C-17.99065738 109.46764981 -19.31980271 90.46226029 -19.3359375 71.953125 C-19.34237525 70.21059055 -19.34910432 68.46805716 -19.35610962 66.7255249 C-19.36802431 63.09124238 -19.37179594 59.45705456 -19.37060547 55.82275391 C-19.3704014 51.17346274 -19.39782009 46.52477675 -19.43214989 41.87562943 C-19.45440296 38.2844769 -19.45844368 34.69347118 -19.45738602 31.10225677 C-19.45973987 29.38788497 -19.46855129 27.67350898 -19.48405075 25.95920563 C-19.50370051 23.56384199 -19.49788009 21.16980006 -19.48583984 18.77441406 C-19.49707886 18.07298782 -19.50831787 17.37156158 -19.51989746 16.64888 C-19.45625271 11.65291988 -18.09980917 8.8624251 -15 5 C-10.09690483 0.68060664 -6.59522857 -0.86904636 0 0 Z " fill="#6E276C" transform="translate(312,152)"/>
<path d="M0 0 C1.15693359 -0.00193359 2.31386719 -0.00386719 3.50585938 -0.00585938 C5.30700195 0.02991211 5.30700195 0.02991211 7.14453125 0.06640625 C8.91666992 0.0499707 8.91666992 0.0499707 10.72460938 0.03320312 C18.11274488 0.09460037 24.45783866 0.92820291 30.95703125 4.62890625 C35.30367866 9.08156945 36.30468589 12.24626018 36.24609375 18.30078125 C35.80520326 21.85173711 34.27670237 23.97785354 31.95703125 26.62890625 C30.96703125 26.95890625 29.97703125 27.28890625 28.95703125 27.62890625 C28.95703125 28.28890625 28.95703125 28.94890625 28.95703125 29.62890625 C29.67890625 29.83515625 30.40078125 30.04140625 31.14453125 30.25390625 C34.75984979 32.02139532 37.16913412 34.03839678 38.95703125 37.62890625 C39.78439419 42.39204242 39.35486348 46.43540956 37.83203125 51.00390625 C34.5873289 55.54648954 30.17861359 57.90667425 24.95703125 59.62890625 C20.35222159 60.01762183 15.74659495 60.00053213 11.12768555 59.99951172 C8.89750654 60.0039004 6.66928454 60.04030211 4.43945312 60.078125 C3.01693382 60.08399114 1.59440516 60.08796189 0.171875 60.08984375 C-1.115979 60.09806152 -2.40383301 60.1062793 -3.73071289 60.11474609 C-7.04296875 59.62890625 -7.04296875 59.62890625 -9.45849609 58.29711914 C-12.05153529 53.93050506 -11.63275225 49.46018941 -11.609375 44.4765625 C-11.61867287 42.83813637 -11.61867287 42.83813637 -11.62815857 41.16661072 C-11.63525965 38.85758353 -11.63207778 36.54850517 -11.61938477 34.23950195 C-11.60553201 30.70753621 -11.63957335 27.17822579 -11.67773438 23.64648438 C-11.67868569 21.4023431 -11.67682611 19.15819851 -11.671875 16.9140625 C-11.68513321 15.85872818 -11.69839142 14.80339386 -11.71205139 13.71607971 C-11.65235822 9.01159078 -11.5818913 6.41823849 -8.88134766 2.46289062 C-5.61201469 0.35045047 -3.86666722 -0.00269246 0 0 Z " fill="#FAF8FA" transform="translate(521.04296875,307.37109375)"/>
<path d="M0 0 C7.57447292 2.29486819 12.09065668 14.54225058 15.72607422 21.04663086 C16.13486816 21.76858643 16.54366211 22.49054199 16.96484375 23.234375 C17.32876221 23.88929932 17.69268066 24.54422363 18.06762695 25.21899414 C18.40882568 25.68684326 18.75002441 26.15469238 19.1015625 26.63671875 C19.7615625 26.63671875 20.4215625 26.63671875 21.1015625 26.63671875 C22.44438327 24.82683407 22.44438327 24.82683407 23.74609375 22.47265625 C24.25849609 21.59738281 24.77089844 20.72210938 25.29882812 19.8203125 C25.83185547 18.89347656 26.36488281 17.96664062 26.9140625 17.01171875 C33.865475 4.96489511 33.865475 4.96489511 38.1015625 0.63671875 C41.81535619 0.05033027 43.97776964 0.01253336 47.28504944 1.8494873 C49.1015625 3.63671875 49.1015625 3.63671875 49.60276794 5.98937988 C49.60293411 6.91520874 49.60310028 7.8410376 49.60327148 8.79492188 C49.61265244 9.84611206 49.62203339 10.89730225 49.63169861 11.98034668 C49.62046463 13.11476196 49.60923065 14.24917725 49.59765625 15.41796875 C49.59911148 16.58299927 49.60056671 17.74802979 49.60206604 18.94836426 C49.60040508 21.41302998 49.58882194 23.87770586 49.56811523 26.34228516 C49.53917622 30.12186595 49.54750004 33.90004378 49.56054688 37.6796875 C49.55430933 40.07162142 49.54591827 42.4635509 49.53515625 44.85546875 C49.53809189 45.98988403 49.54102753 47.12429932 49.54405212 48.29309082 C49.52502586 49.8698761 49.52502586 49.8698761 49.50561523 51.47851562 C49.50021225 52.40434448 49.49480927 53.33017334 49.48924255 54.28405762 C49.027527 57.08600792 48.37881389 57.98205982 46.1015625 59.63671875 C43.1640625 60.07421875 43.1640625 60.07421875 40.1015625 59.63671875 C37.18696407 57.44383041 36.21006686 56.23786007 35.55566406 52.61230469 C35.5347168 51.46020508 35.51376953 50.30810547 35.4921875 49.12109375 C35.45996094 47.87070313 35.42773438 46.6203125 35.39453125 45.33203125 C35.38035156 44.03007812 35.36617187 42.728125 35.3515625 41.38671875 C35.32191406 40.06929687 35.29226563 38.751875 35.26171875 37.39453125 C35.19100862 34.14186532 35.13831464 30.88991682 35.1015625 27.63671875 C34.40289063 28.69632813 33.70421875 29.7559375 32.984375 30.84765625 C32.06522649 32.23575809 31.14594894 33.62377449 30.2265625 35.01171875 C29.76636719 35.71039063 29.30617188 36.4090625 28.83203125 37.12890625 C28.16494141 38.134375 28.16494141 38.134375 27.484375 39.16015625 C26.87166748 40.08707275 26.87166748 40.08707275 26.24658203 41.03271484 C25.1015625 42.63671875 25.1015625 42.63671875 23.1015625 44.63671875 C20.2265625 45.01171875 20.2265625 45.01171875 17.1015625 44.63671875 C13.49088417 41.64000192 11.2195519 37.87721941 8.8515625 33.88671875 C8.48804688 33.28472656 8.12453125 32.68273437 7.75 32.0625 C6.86202953 30.59033844 5.98107092 29.11395135 5.1015625 27.63671875 C5.0922168 28.46397461 5.08287109 29.29123047 5.07324219 30.14355469 C5.01955931 33.8918829 4.9359054 37.63896037 4.8515625 41.38671875 C4.83029297 43.33964844 4.83029297 43.33964844 4.80859375 45.33203125 C4.77636719 46.58242187 4.74414062 47.8328125 4.7109375 49.12109375 C4.68999023 50.27319336 4.66904297 51.42529297 4.64746094 52.61230469 C3.99305814 56.23786007 3.01616093 57.44383041 0.1015625 59.63671875 C-3.03676814 60.0850517 -4.93817614 60.33403101 -7.55776978 58.4317627 C-9.35970607 56.01911803 -9.27889662 54.47482912 -9.28662109 51.47851562 C-9.29607758 50.42732544 -9.30553406 49.37613525 -9.3152771 48.29309082 C-9.30920441 47.15867554 -9.30313171 46.02426025 -9.296875 44.85546875 C-9.29974518 43.69043823 -9.30261536 42.52540771 -9.30557251 41.32507324 C-9.30761517 38.860428 -9.30207129 36.39576663 -9.28955078 33.93115234 C-9.27350091 30.1516506 -9.28939364 26.37321835 -9.30859375 22.59375 C-9.30661136 20.20182055 -9.30276776 17.80989176 -9.296875 15.41796875 C-9.30294769 14.28355347 -9.30902039 13.14913818 -9.3152771 11.98034668 C-9.30582062 10.92915649 -9.29636414 9.87796631 -9.28662109 8.79492188 C-9.28423431 7.86909302 -9.28184753 6.94326416 -9.27938843 5.98937988 C-8.8984375 3.63671875 -8.8984375 3.63671875 -7.60855103 1.86120605 C-5.19868715 0.13567867 -2.92280599 -0.15411159 0 0 Z " fill="#FCFAFC" transform="translate(572.8984375,156.36328125)"/>
<path d="M0 0 C4.2867157 0.25458825 6.16119526 1.58012128 9.0625 4.6875 C10.71894735 6.72507682 12.30778942 8.77086958 13.875 10.875 C14.44009277 11.62539551 15.00518555 12.37579102 15.58740234 13.14892578 C19.23688699 18.01011973 22.83430669 22.90679763 26.39208984 27.83544922 C27.86685665 29.86379988 29.36538341 31.87249331 30.875 33.875 C30.88958252 33.01745117 30.90416504 32.15990234 30.91918945 31.27636719 C30.98035478 28.08539587 31.05452762 24.89506413 31.13745117 21.70458984 C31.17064193 20.32547333 31.19869217 18.94622289 31.22143555 17.56689453 C31.25508642 15.58077694 31.30894729 13.59503441 31.36328125 11.609375 C31.38946533 10.41538086 31.41564941 9.22138672 31.44262695 7.99121094 C31.90410678 4.66522084 32.54061787 3.24345285 34.875 0.875 C36.8125 0.34375 36.8125 0.34375 38.875 0.375 C39.555625 0.3646875 40.23625 0.354375 40.9375 0.34375 C43.71264612 1.10467716 44.382872 2.45965046 45.875 4.875 C46.25595093 7.18260193 46.25595093 7.18260193 46.26318359 9.74780273 C46.27264008 10.712379 46.28209656 11.67695526 46.2918396 12.67076111 C46.28576691 13.70624588 46.27969421 14.74173065 46.2734375 15.80859375 C46.27630768 16.87868179 46.27917786 17.94876984 46.28213501 19.05128479 C46.28417553 21.31324798 46.27864653 23.57522882 46.26611328 25.8371582 C46.25007586 29.29613832 46.26595494 32.75394713 46.28515625 36.21289062 C46.28317351 38.41146091 46.27932919 40.61003047 46.2734375 42.80859375 C46.28254654 44.35878456 46.28254654 44.35878456 46.2918396 45.94029236 C46.20175039 55.15956542 46.20175039 55.15956542 42.875 58.875 C39.5625 60 39.5625 60 35.875 59.875 C30.40447231 56.08829769 26.8905249 51.18884335 23.0625 45.8125 C21.9108255 44.21696463 20.75847032 42.62192039 19.60546875 41.02734375 C19.02071777 40.21507324 18.4359668 39.40280273 17.83349609 38.56591797 C14.23819087 33.62607078 10.55354871 28.75304133 6.875 23.875 C6.8656543 24.85895752 6.85630859 25.84291504 6.84667969 26.85668945 C6.8068012 30.5080286 6.7410502 34.15852319 6.66748047 37.80932617 C6.63925807 39.38929392 6.61804975 40.96940318 6.60400391 42.54956055 C6.58259035 44.82153845 6.53595466 47.09181271 6.484375 49.36328125 C6.48253204 50.42280754 6.48253204 50.42280754 6.48065186 51.5037384 C6.38394138 54.74297146 6.29463901 56.44191381 3.99316406 58.81713867 C1.31682207 60.15376729 -0.17052366 60.39203336 -3.125 59.875 C-5.61765526 57.86866105 -6.96073465 56.65838475 -7.62620544 53.48474121 C-7.62637161 52.59967896 -7.62653778 51.7146167 -7.62670898 50.80273438 C-7.63608994 49.79488892 -7.64547089 48.78704346 -7.65513611 47.74865723 C-7.63828514 46.12510315 -7.63828514 46.12510315 -7.62109375 44.46875 C-7.62254898 43.35189819 -7.62400421 42.23504639 -7.62550354 41.08435059 C-7.6238442 38.72401317 -7.61227921 36.36366497 -7.59155273 34.00341797 C-7.56260834 30.38853034 -7.570942 26.7751098 -7.58398438 23.16015625 C-7.57774671 20.86718036 -7.56935556 18.57420912 -7.55859375 16.28125 C-7.56152939 15.19888062 -7.56446503 14.11651123 -7.56748962 13.00134277 C-7.54846336 11.48957458 -7.54846336 11.48957458 -7.52905273 9.94726562 C-7.52364975 9.06220337 -7.51824677 8.17714111 -7.51268005 7.26525879 C-6.78284851 2.76544959 -4.56910739 0.27840439 0 0 Z " fill="#F8F6F8" transform="translate(634.125,307.125)"/>
<path d="M0 0 C7.77587454 1.39965742 12.21769349 9.33673356 16.5625 15.3125 C17.83123491 17.03704448 19.10076215 18.76100633 20.37109375 20.484375 C20.98710449 21.32291016 21.60311523 22.16144531 22.23779297 23.02539062 C25.13581085 26.92140638 28.12279908 30.74646688 31.125 34.5625 C31.1343457 33.6746582 31.14369141 32.78681641 31.15332031 31.87207031 C31.19740681 28.56904081 31.25904746 25.26729993 31.33251953 21.96484375 C31.36069611 20.53723063 31.38192727 19.10946247 31.39599609 17.68164062 C31.41747392 15.62549668 31.46413974 13.57120998 31.515625 11.515625 C31.53657227 10.27973633 31.55751953 9.04384766 31.57910156 7.77050781 C32.21825857 4.01445995 33.04692185 2.75877263 36.125 0.5625 C39.75 0.625 39.75 0.625 43.125 1.5625 C45.31179115 4.84268673 45.38034676 5.82284189 45.3996582 9.62890625 C45.41395622 11.1756604 45.41395622 11.1756604 45.42854309 12.75366211 C45.42763168 13.86620361 45.42672028 14.97874512 45.42578125 16.125 C45.43006638 17.26783447 45.4343515 18.41066895 45.43876648 19.58813477 C45.44451244 22.00568987 45.4450081 24.42326227 45.44067383 26.84082031 C45.43751252 30.54782449 45.46097545 34.25403197 45.48632812 37.9609375 C45.48860087 40.30729066 45.48930473 42.65364597 45.48828125 45 C45.497491 46.1125415 45.50670074 47.22508301 45.51618958 48.37133789 C45.50996078 49.40250732 45.50373199 50.43367676 45.49731445 51.49609375 C45.49794388 52.40415771 45.4985733 53.31222168 45.4992218 54.24780273 C45.125 56.5625 45.125 56.5625 43.8321991 58.33227539 C41.43815895 60.05744448 39.195811 60.35103486 36.28515625 60.203125 C31.52581887 58.79167594 28.9807586 54.37673179 26.125 50.5625 C25.15003708 49.28102361 24.17475552 47.9997896 23.19921875 46.71875 C21.16577334 44.03364038 19.15204182 41.33531229 17.15234375 38.625 C13.88673772 34.21089228 10.51178182 29.88397608 7.125 25.5625 C7.11041748 26.48587158 7.09583496 27.40924316 7.08081055 28.3605957 C7.01973692 31.78827204 6.9455839 35.21514662 6.86254883 38.64233398 C6.82930577 40.12529854 6.80127177 41.60838944 6.77856445 43.09155273 C6.74500532 45.22434293 6.69269362 47.35597612 6.63671875 49.48828125 C6.61053467 50.77130127 6.58435059 52.05432129 6.55737305 53.3762207 C6.125 56.5625 6.125 56.5625 4.81176758 58.48120117 C1.94576963 60.31844316 -0.58685187 59.91480159 -3.875 59.5625 C-6.15653019 57.93534354 -6.79524113 57.03732695 -7.26268005 54.25453186 C-7.26808304 53.3494841 -7.27348602 52.44443634 -7.27905273 51.51196289 C-7.29173691 50.48402115 -7.30442108 49.45607941 -7.31748962 48.39698792 C-7.31455399 47.28758347 -7.31161835 46.17817902 -7.30859375 45.03515625 C-7.3138356 43.89469345 -7.31907745 42.75423065 -7.32447815 41.57920837 C-7.33090546 39.16585098 -7.32955224 36.75246229 -7.32104492 34.33911133 C-7.31254101 30.64282503 -7.34127919 26.94808641 -7.37304688 23.25195312 C-7.37465906 20.90885463 -7.37408104 18.56575339 -7.37109375 16.22265625 C-7.38232773 15.11527603 -7.39356171 14.00789581 -7.40513611 12.86695862 C-7.39575516 11.83586472 -7.38637421 10.80477081 -7.37670898 9.74243164 C-7.37654282 8.83658829 -7.37637665 7.93074493 -7.37620544 6.99745178 C-6.50439852 2.76204724 -4.1520212 0.81235197 0 0 Z " fill="#FBFAFB" transform="translate(715.875,231.4375)"/>
<path d="M0 0 C8.33552496 1.76328413 13.72816082 10.55154998 18.375 17.125 C19.54399706 18.74889503 20.71326535 20.37259485 21.8828125 21.99609375 C22.44000977 22.77581543 22.99720703 23.55553711 23.57128906 24.35888672 C26.08059702 27.83965741 28.65937859 31.26700556 31.25 34.6875 C31.2593457 33.7996582 31.26869141 32.91181641 31.27832031 31.99707031 C31.32240681 28.69404081 31.38404746 25.39229993 31.45751953 22.08984375 C31.48569611 20.66223063 31.50692727 19.23446247 31.52099609 17.80664062 C31.54247392 15.75049668 31.58913974 13.69620998 31.640625 11.640625 C31.66157227 10.40473633 31.68251953 9.16884766 31.70410156 7.89550781 C32.34325857 4.13945995 33.17192185 2.88377263 36.25 0.6875 C39.875 0.75 39.875 0.75 43.25 1.6875 C45.43679115 4.96768673 45.50534676 5.94784189 45.5246582 9.75390625 C45.53895622 11.3006604 45.53895622 11.3006604 45.55354309 12.87866211 C45.55263168 13.99120361 45.55172028 15.10374512 45.55078125 16.25 C45.55506638 17.39283447 45.5593515 18.53566895 45.56376648 19.71313477 C45.56951244 22.13068987 45.5700081 24.54826227 45.56567383 26.96582031 C45.56251252 30.67282449 45.58597545 34.37903197 45.61132812 38.0859375 C45.61360087 40.43229066 45.61430473 42.77864597 45.61328125 45.125 C45.622491 46.2375415 45.63170074 47.35008301 45.64118958 48.49633789 C45.63496078 49.52750732 45.62873199 50.55867676 45.62231445 51.62109375 C45.62294388 52.52915771 45.6235733 53.43722168 45.6242218 54.37280273 C45.17124317 57.17463952 44.5215934 58.02737726 42.25 59.6875 C38.70125977 60.62137901 37.57937514 60.90694745 34.25 59.6875 C30.35290147 56.13098823 27.35912127 51.92089688 24.25 47.6875 C23.20935451 46.31464209 22.16630873 44.94360092 21.12109375 43.57421875 C16.39265595 37.35213566 11.77509404 31.05889835 7.25 24.6875 C7.23541748 25.64116455 7.22083496 26.5948291 7.20581055 27.57739258 C7.14782208 31.11683585 7.07059042 34.65564324 6.98754883 38.19458008 C6.95430182 39.72605059 6.92626907 41.25764356 6.90356445 42.78930664 C6.87001282 44.99157887 6.8177009 47.19272912 6.76171875 49.39453125 C6.75213387 50.42124687 6.75213387 50.42124687 6.74235535 51.46870422 C6.65521211 54.28821255 6.54477611 56.25374783 4.93676758 58.61987305 C2.06629786 60.43671544 -0.46731789 60.03921594 -3.75 59.6875 C-6.03153019 58.06034354 -6.67024113 57.16232695 -7.13768005 54.37953186 C-7.14308304 53.4744841 -7.14848602 52.56943634 -7.15405273 51.63696289 C-7.16673691 50.60902115 -7.17942108 49.58107941 -7.19248962 48.52198792 C-7.18955399 47.41258347 -7.18661835 46.30317902 -7.18359375 45.16015625 C-7.1888356 44.01969345 -7.19407745 42.87923065 -7.19947815 41.70420837 C-7.20590546 39.29085098 -7.20455224 36.87746229 -7.19604492 34.46411133 C-7.18754101 30.76782503 -7.21627919 27.07308641 -7.24804688 23.37695312 C-7.24965906 21.03385463 -7.24908104 18.69075339 -7.24609375 16.34765625 C-7.25732773 15.24027603 -7.26856171 14.13289581 -7.28013611 12.99195862 C-7.27075516 11.96086472 -7.26137421 10.92977081 -7.25170898 9.86743164 C-7.25154282 8.96158829 -7.25137665 8.05574493 -7.25120544 7.12245178 C-6.39484174 2.96207334 -4.02892917 1.00723229 0 0 Z " fill="#FCFAFC" transform="translate(592.75,231.3125)"/>
<path d="M0 0 C3.79362831 0.45009149 4.88421478 1.01351673 7.41784668 3.73355103 C10.02721208 7.23547193 11.59545205 11.26405727 13.296875 15.26171875 C13.70915344 16.2043306 14.12143188 17.14694244 14.54620361 18.11811829 C15.85440697 21.11572467 17.1462038 24.12007721 18.4375 27.125 C19.32052227 29.15737598 20.20462549 31.18928267 21.08984375 33.22070312 C23.02989933 37.67552839 24.95938809 42.13476714 26.87957764 46.59819031 C27.44846594 47.89331694 28.05488844 49.17227689 28.6875 50.4375 C29.1399237 56.65832585 29.1399237 56.65832585 27.5625 59.375 C24.7175175 60.98715675 22.8963071 60.96138687 19.6875 60.4375 C15.86337916 56.83190036 14.84693421 53.47617983 12.6875 48.4375 C-0.1825 47.9425 -0.1825 47.9425 -13.3125 47.4375 C-14.3025 50.4075 -15.2925 53.3775 -16.3125 56.4375 C-17.625 59 -17.625 59 -19.3125 60.4375 C-23.39415827 60.94770728 -24.84207297 60.75111802 -28.3125 58.4375 C-29.17903093 52.20558576 -27.05644665 47.60475548 -24.55078125 42.06640625 C-24.16311081 41.18524643 -23.77544037 40.30408661 -23.37602234 39.39622498 C-22.5556866 37.53870841 -21.72912223 35.6839316 -20.89672852 33.83178711 C-19.63329245 31.01846498 -18.39031961 28.19679621 -17.15039062 25.37304688 C-16.34754993 23.56196945 -15.5435506 21.75140511 -14.73828125 19.94140625 C-14.37035965 19.10783096 -14.00243805 18.27425568 -13.62336731 17.41542053 C-6.1287817 0.80946173 -6.1287817 0.80946173 0 0 Z " fill="#FBFAFB" transform="translate(657.3125,155.5625)"/>
<path d="M0 0 C4.24871066 0.75869833 6.03093487 2.24468865 8.5 5.625 C10.48704921 9.35977676 12.11696694 13.224732 13.75 17.125 C14.22091064 18.22690674 14.69182129 19.32881348 15.17700195 20.46411133 C16.1471835 22.73548138 17.11306882 25.00869117 18.07470703 27.28369141 C19.42416339 30.44721655 20.81053612 33.59097412 22.21484375 36.73046875 C22.63282227 37.6740625 23.05080078 38.61765625 23.48144531 39.58984375 C24.26668976 41.36252515 25.05867433 43.13224115 25.85839844 44.8984375 C27.7768099 49.29045046 29.08745308 52.72955769 28.5 57.625 C27.4375 59.5625 27.4375 59.5625 25.5 60.625 C21.94944335 60.5615972 19.50589117 60.48719243 16.75 58.125 C14.92235732 54.46971463 13.79233853 50.5020156 12.5 46.625 C3.92 46.625 -4.66 46.625 -13.5 46.625 C-13.995 49.1 -13.995 49.1 -14.5 51.625 C-17.71637427 58.93494152 -17.71637427 58.93494152 -20.5 60.625 C-24.0625 60.5 -24.0625 60.5 -27.5 59.625 C-29.5 56.625 -29.5 56.625 -29.26171875 53.77197266 C-28.52692824 50.73625161 -27.58829457 48.11971867 -26.3125 45.2734375 C-25.86535645 44.26635742 -25.41821289 43.25927734 -24.95751953 42.22167969 C-24.23604736 40.62694824 -24.23604736 40.62694824 -23.5 39 C-23.00741699 37.90075195 -22.51483398 36.80150391 -22.00732422 35.66894531 C-20.99647206 33.41399248 -19.98328387 31.1600854 -18.96777344 28.90722656 C-17.60154248 25.85206872 -16.26691093 22.78561273 -14.9453125 19.7109375 C-14.55214844 18.80682129 -14.15898438 17.90270508 -13.75390625 16.97119141 C-13.02156123 15.28698791 -12.29710645 13.59932299 -11.58203125 11.90771484 C-9.06907837 6.19899418 -6.60772237 1.17995042 0 0 Z " fill="#FBFAFB" transform="translate(539.5,80.375)"/>
<path d="M0 0 C5.2606906 3.15108152 6.98984912 7.48394013 9.3203125 12.89453125 C9.89832108 14.19290169 9.89832108 14.19290169 10.48800659 15.51750183 C11.71297803 18.27711244 12.91913223 21.04449629 14.125 23.8125 C14.94279023 25.66264919 15.76178857 27.51226489 16.58203125 29.36132812 C18.42417121 33.52288359 20.26026698 37.68683337 22.06695557 41.86392212 C22.67172121 43.24845052 23.28958845 44.62735863 23.92279053 45.99911499 C25.95488458 50.46692605 26.31877253 53.19590007 25 58 C21.75846834 60.1610211 20.76307099 60.64247553 17 60 C12.47619508 55.87535434 12.07930037 52.23790111 10 46 C1.42 46 -7.16 46 -16 46 C-16.99 48.97 -17.98 51.94 -19 55 C-21.3125 58.125 -21.3125 58.125 -24 60 C-27.1875 60 -27.1875 60 -30 59 C-32 56 -32 56 -31.87060547 52.88891602 C-30.81779827 48.18612133 -29.08634484 44.13741729 -27.0703125 39.77734375 C-26.67931366 38.91363663 -26.28831482 38.0499295 -25.88546753 37.16004944 C-24.64034163 34.41530522 -23.38276287 31.67647268 -22.125 28.9375 C-21.28696258 27.09346133 -20.44971502 25.24906349 -19.61328125 23.40429688 C-8.50798691 -1.02682601 -8.50798691 -1.02682601 0 0 Z " fill="#FCFBFC" transform="translate(595,307)"/>
<path d="M0 0 C0.7528125 0.01289063 1.505625 0.02578125 2.28125 0.0390625 C3.0340625 0.02617187 3.786875 0.01328125 4.5625 0 C7.83589589 0.97971356 8.80886256 2.90985931 10.78125 5.6640625 C11.92817697 7.89029986 13.00405802 10.15395358 14.0234375 12.44140625 C14.3142923 13.08920547 14.60514709 13.7370047 14.90481567 14.4044342 C15.82881766 16.46716015 16.74255681 18.53425298 17.65625 20.6015625 C18.26107357 21.95406474 18.86653759 23.30628078 19.47265625 24.65820312 C20.67190603 27.33766168 21.85949516 30.02184272 23.03808594 32.71044922 C24.18812326 35.3336342 25.36482915 37.94214942 26.56347656 40.54345703 C27.11806373 41.77235934 27.67243556 43.00135885 28.2265625 44.23046875 C28.96543701 45.8403064 28.96543701 45.8403064 29.71923828 47.48266602 C30.9231874 51.08925473 31.11498644 53.88562788 30.78125 57.6640625 C28.78125 59.6640625 28.78125 59.6640625 26.8359375 59.859375 C24.81770833 59.79427083 22.79947917 59.72916667 20.78125 59.6640625 C18.80125 55.7040625 16.82125 51.7440625 14.78125 47.6640625 C1.91125 47.1690625 1.91125 47.1690625 -11.21875 46.6640625 C-11.71375 49.1390625 -11.71375 49.1390625 -12.21875 51.6640625 C-13.64244071 54.8209419 -14.76628173 57.21159423 -17.21875 59.6640625 C-20.71875 59.9140625 -20.71875 59.9140625 -24.21875 59.6640625 C-26.21875 57.6640625 -26.21875 57.6640625 -26.60839844 54.68603516 C-26.44375394 49.46135026 -24.11908247 44.99712906 -21.984375 40.3125 C-21.5499408 39.33544098 -21.11550659 38.35838196 -20.66790771 37.35171509 C-19.74930951 35.29322844 -18.82438662 33.23755396 -17.89355469 31.18457031 C-16.47328626 28.04907709 -15.07503105 24.90446463 -13.6796875 21.7578125 C-12.78253644 19.75463169 -11.88414036 17.75200791 -10.984375 15.75 C-10.35912933 14.34516861 -10.35912933 14.34516861 -9.72125244 12.91195679 C-4.44290082 1.32974144 -4.44290082 1.32974144 0 0 Z " fill="#FCFBFC" transform="translate(671.21875,231.3359375)"/>
<path d="M0 0 C0.69790146 0.00285004 1.39580292 0.00570007 2.11485291 0.00863647 C2.90900101 0.00248322 3.70314911 -0.00367004 4.5213623 -0.01000977 C5.37455551 0.00436127 6.22774872 0.0187323 7.10679626 0.03353882 C7.98564987 0.03445526 8.86450348 0.0353717 9.76998901 0.03631592 C11.6268606 0.04235593 13.48372227 0.058114 15.34043884 0.08285522 C18.1893535 0.11938289 21.03696871 0.12387452 23.88609314 0.12338257 C25.6888388 0.1332128 27.49157563 0.14486939 29.29429626 0.15853882 C30.1495137 0.16076447 31.00473114 0.16299011 31.88586426 0.1652832 C37.90199423 0.26233053 37.90199423 0.26233053 40.13414001 2.49447632 C40.44664001 5.99447632 40.44664001 5.99447632 40.13414001 9.49447632 C36.50107944 11.9165167 34.81594979 11.72750522 30.49742126 11.68978882 C29.1986908 11.68334351 27.89996033 11.67689819 26.56187439 11.67025757 C25.19012694 11.65354692 23.81838215 11.63661703 22.44664001 11.61947632 C21.06318283 11.60944306 19.67971874 11.60031781 18.29624939 11.59213257 C14.90870549 11.56852599 11.5215093 11.53559669 8.13414001 11.49447632 C8.13414001 15.45447632 8.13414001 19.41447632 8.13414001 23.49447632 C9.90402283 23.45967163 11.67390564 23.42486694 13.49742126 23.38900757 C15.81381805 23.36087319 18.13022506 23.33357266 20.44664001 23.30697632 C21.61388611 23.2818396 22.7811322 23.25670288 23.98374939 23.23080444 C25.10201111 23.22113647 26.22027283 23.21146851 27.37242126 23.20150757 C28.4040741 23.18579712 29.43572693 23.17008667 30.49864197 23.15390015 C33.13414001 23.49447632 33.13414001 23.49447632 34.97471619 24.82138062 C36.75218572 27.38634139 36.45629814 29.46618997 36.13414001 32.49447632 C34.13414001 34.49447632 34.13414001 34.49447632 31.52037048 34.7215271 C30.4415863 34.71105347 29.36280212 34.70057983 28.25132751 34.68978882 C27.08472595 34.68334351 25.91812439 34.67689819 24.71617126 34.67025757 C22.8811908 34.64512085 22.8811908 34.64512085 21.00914001 34.61947632 C19.77808533 34.61045288 18.54703064 34.60142944 17.27867126 34.59213257 C14.23041196 34.56850265 11.18225212 34.53263071 8.13414001 34.49447632 C8.13414001 38.78447632 8.13414001 43.07447632 8.13414001 47.49447632 C11.34777283 47.45967163 11.34777283 47.45967163 14.62632751 47.42416382 C16.69809883 47.40857259 18.76986365 47.39642487 20.84165955 47.38461304 C22.28309548 47.37454669 23.72451097 47.36089251 25.1658783 47.34359741 C27.23607935 47.3193762 29.30601078 47.3079999 31.37632751 47.29916382 C33.24587097 47.28345337 33.24587097 47.28345337 35.15318298 47.26742554 C38.13414001 47.49447632 38.13414001 47.49447632 40.13414001 49.49447632 C40.67564132 54.58458861 40.67564132 54.58458861 39.1436615 57.15878296 C35.91650859 59.30381437 32.41891842 58.94177515 28.66929626 58.92807007 C27.83957809 58.93331192 27.00985992 58.93855377 26.15499878 58.94395447 C24.40074278 58.95037578 22.64644374 58.94903622 20.89219666 58.94052124 C18.20969301 58.9320177 15.52932346 58.96075823 12.84703064 58.99252319 C11.14195315 58.99413549 9.4368719 58.99355713 7.73179626 58.99057007 C6.5300753 59.00742104 6.5300753 59.00742104 5.30407715 59.02461243 C2.02386585 58.98362766 -0.45723447 58.71160589 -3.37220764 57.16268921 C-5.83763885 52.75852155 -5.4144759 48.26510661 -5.36195374 43.30697632 C-5.36340897 42.21232056 -5.3648642 41.11766479 -5.36636353 39.98983765 C-5.36470431 37.67657814 -5.3531406 35.36330762 -5.33241272 33.05014038 C-5.3034678 29.50767159 -5.31180224 25.96669989 -5.32484436 22.42416382 C-5.31860669 20.1767607 -5.31021553 17.92936232 -5.29945374 15.68197632 C-5.30238937 14.62148071 -5.30532501 13.56098511 -5.30834961 12.46835327 C-5.29566544 11.48052856 -5.28298126 10.49270386 -5.26991272 9.47494507 C-5.26450974 8.60764771 -5.25910675 7.74035034 -5.25354004 6.84677124 C-4.69079557 3.43225214 -3.50505929 0.92888471 0 0 Z " fill="#FDFCFD" transform="translate(833.8658599853516,232.50552368164063)"/>
<path d="M0 0 C1.0209375 0.01546875 1.0209375 0.01546875 2.0625 0.03125 C2.743125 0.0209375 3.42375 0.010625 4.125 0 C6.0625 0.53125 6.0625 0.53125 7.66040039 2.05883789 C9.62113911 5.51633414 9.46530066 8.75380951 9.43359375 12.62109375 C9.45097484 14.2259136 9.46855924 15.83073127 9.48632812 17.43554688 C9.49639987 19.95471222 9.49999662 22.47373527 9.49829102 24.99291992 C9.50186759 27.43190565 9.52923076 29.86980235 9.55859375 32.30859375 C9.55041122 33.05769516 9.5422287 33.80679657 9.53379822 34.57859802 C9.60386394 39.51789753 10.52659736 42.07121979 14.0625 45.53125 C17.5117432 47.2558716 21.28381431 46.89735104 25.0625 46.53125 C27.89930069 45.32410077 29.43346046 44.4469212 31.17211914 41.91601562 C32.44026092 38.51946809 32.36063955 35.2027486 32.37109375 31.625 C32.3962454 30.06119405 32.42164354 28.49739206 32.44726562 26.93359375 C32.47603592 24.47803703 32.50006638 22.02254859 32.51879883 19.56689453 C32.54045817 17.19007941 32.57988535 14.81404481 32.62109375 12.4375 C32.62120956 11.70511108 32.62132538 10.97272217 32.6214447 10.21813965 C32.70182622 6.07507774 33.01916168 3.47061031 36.0625 0.53125 C38 0 38 0 40.0625 0.03125 C40.743125 0.0209375 41.42375 0.010625 42.125 0 C44.97388766 0.78114662 45.59209024 1.98742318 47.0625 4.53125 C47.43481445 7.88769531 47.43481445 7.88769531 47.42578125 11.859375 C47.42652901 12.92112946 47.42652901 12.92112946 47.42729187 14.0043335 C47.42495576 15.50047616 47.41525439 16.99662308 47.39868164 18.49267578 C47.37522189 20.75980646 47.37810748 23.02574851 47.38476562 25.29296875 C47.34275961 36.27667538 47.01749113 46.57625887 38.8125 54.78125 C30.30097338 60.19767603 21.86133457 60.42939241 12.0625 59.53125 C4.80366175 57.6278213 1.05216619 52.87104682 -2.6875 46.59375 C-5.77642671 39.02587957 -5.15615599 30.59886395 -5.17773438 22.55102539 C-5.18752108 20.33898427 -5.21864394 18.12784268 -5.25 15.91601562 C-5.25652404 14.50260963 -5.26177686 13.08919707 -5.265625 11.67578125 C-5.2749707 10.40065674 -5.28431641 9.12553223 -5.29394531 7.81176758 C-4.87349871 3.94221898 -3.99855361 1.0963776 0 0 Z " fill="#F7F4F7" transform="translate(576.9375,81.46875)"/>
<path d="M0 0 C1.70043945 1.21801758 1.70043945 1.21801758 3 3 C3.34057617 5.26831055 3.34057617 5.26831055 3.29296875 7.88671875 C3.28330078 8.82451172 3.27363281 9.76230469 3.26367188 10.72851562 C3.23853516 11.70498047 3.21339844 12.68144531 3.1875 13.6875 C3.17396484 14.67556641 3.16042969 15.66363281 3.14648438 16.68164062 C3.11112203 19.12164231 3.06177033 21.56054719 3 24 C7.29933042 20.38885221 11.39130153 16.67628832 15.25390625 12.59765625 C15.96353516 11.85322266 16.67316406 11.10878906 17.40429688 10.34179688 C18.85863851 8.80585417 20.30117983 7.2586621 21.73242188 5.70117188 C27.09467925 0.13398747 27.09467925 0.13398747 31.90625 -0.578125 C35 0 35 0 36.9375 1.1875 C38.37655654 3.64236115 38.2851711 5.184034 38 8 C36.6706543 9.89697266 36.6706543 9.89697266 34.82421875 11.6640625 C33.82938477 12.63472656 33.82938477 12.63472656 32.81445312 13.625 C32.11255859 14.285 31.41066406 14.945 30.6875 15.625 C29.99720703 16.29273438 29.30691406 16.96046875 28.59570312 17.6484375 C27.30857028 18.89204411 26.01636708 20.13043963 24.7175293 21.36181641 C23.12054859 22.88502047 21.55376062 24.43286795 20 26 C20.3623877 26.44279297 20.72477539 26.88558594 21.09814453 27.34179688 C22.77542918 29.39317524 24.45022113 31.44657547 26.125 33.5 C26.69476562 34.19609375 27.26453125 34.8921875 27.8515625 35.609375 C29.57965525 37.73021611 31.29017226 39.86442028 33 42 C33.58362305 42.70640625 34.16724609 43.4128125 34.76855469 44.140625 C35.31672852 44.82640625 35.86490234 45.5121875 36.4296875 46.21875 C36.92452637 46.82654297 37.41936523 47.43433594 37.92919922 48.06054688 C39.30192005 50.54684288 39.29995922 52.19886855 39 55 C37.4375 57.375 37.4375 57.375 35 59 C30.91375437 58.88649318 28.71742868 58.64060353 25.62890625 55.8828125 C24.94699219 54.97273438 24.26507812 54.06265625 23.5625 53.125 C22.81226563 52.14144531 22.06203125 51.15789062 21.2890625 50.14453125 C20.53367187 49.10683594 19.77828125 48.06914062 19 47 C18.22398437 45.95199219 17.44796875 44.90398437 16.6484375 43.82421875 C14.74437822 41.23052669 12.86244402 38.62366092 11 36 C8.08482708 37.07401108 6.22189824 37.77810176 4 40 C3.74179839 43.15005962 3.63357782 46.25559449 3.609375 49.4140625 C3.48900158 52.81126797 3.22544747 54.70162766 1.15234375 57.4453125 C-1 59 -1 59 -4.0625 59.5 C-7 59 -7 59 -8.65933228 57.29249573 C-10.25046028 54.57172154 -10.37991927 52.95658661 -10.38818359 49.82006836 C-10.39764008 48.78897446 -10.40709656 47.75788055 -10.4168396 46.69554138 C-10.41076691 45.58816116 -10.40469421 44.48078094 -10.3984375 43.33984375 C-10.40130768 42.19842422 -10.40417786 41.0570047 -10.40713501 39.8809967 C-10.40917565 37.46940616 -10.40364587 35.05779907 -10.39111328 32.64624023 C-10.37504575 28.94803016 -10.3909705 25.25091062 -10.41015625 21.55273438 C-10.40817411 19.21093508 -10.40433104 16.86913647 -10.3984375 14.52734375 C-10.40754654 12.86323708 -10.40754654 12.86323708 -10.4168396 11.16551208 C-10.40738312 10.13757034 -10.39792664 9.1096286 -10.38818359 8.05053711 C-10.38579681 7.14548935 -10.38341003 6.24044159 -10.38095093 5.30796814 C-10 3 -10 3 -8.69448853 1.20777893 C-5.86287165 -0.81050987 -3.34721818 -0.35863052 0 0 Z " fill="#FCFBFC" transform="translate(700,308)"/>
<path d="M0 0 C3.8328022 1.48990234 7.18444148 2.89414819 9.7578125 6.2109375 C9.42447917 12.54427083 9.42447917 12.54427083 6.7578125 15.2109375 C2.75444111 15.7828477 0.32396022 15.12118092 -3.1171875 13.2109375 C-7.41670477 10.88375157 -10.38864694 10.7173571 -15.2421875 11.2109375 C-16.2321875 11.8709375 -17.2221875 12.5309375 -18.2421875 13.2109375 C-18.21125577 15.62679324 -18.21125577 15.62679324 -17.2421875 18.2109375 C-13.22937212 20.55470578 -9.20283746 21.91113817 -4.7421875 23.1484375 C0.15785412 24.62012236 3.85407875 25.90777817 7.7578125 29.2109375 C8.5415625 29.8709375 9.3253125 30.5309375 10.1328125 31.2109375 C12.76422088 36.0689222 12.56773672 40.82075214 11.7578125 46.2109375 C10.08152506 50.52531666 7.87429166 53.36677033 4.1953125 56.1484375 C-3.51342368 59.50865583 -14.00831222 59.50533676 -22.1484375 57.4921875 C-24.34954937 56.55746876 -26.25447067 55.53608205 -28.2421875 54.2109375 C-28.85835937 53.81390625 -29.47453125 53.416875 -30.109375 53.0078125 C-32.73681887 51.09474277 -34.11481796 49.80532867 -34.8046875 46.5859375 C-34.2421875 44.2109375 -34.2421875 44.2109375 -33.1796875 42.3984375 C-30.01062284 40.45610754 -27.90902665 40.73779697 -24.2421875 41.2109375 C-22.77668936 41.9939866 -21.33996579 42.83232164 -19.9296875 43.7109375 C-15.12367642 46.62092362 -10.7734744 47.15944338 -5.2421875 46.2109375 C-2.0178812 44.56956633 -2.0178812 44.56956633 -1.7421875 41.7734375 C-1.97548307 39.02751777 -1.97548307 39.02751777 -4.4140625 37.63671875 C-7.31500621 36.17422641 -9.81766382 35.48259973 -12.9921875 34.8359375 C-19.83774531 33.20042246 -26.68511164 31.12385471 -30.8046875 25.0234375 C-32.90869801 20.58271486 -33.02044996 16.00757555 -32.2421875 11.2109375 C-25.93048967 -1.65521578 -12.80306852 -3.11592752 0 0 Z " fill="#FBFAFB" transform="translate(544.2421875,157.7890625)"/>
<path d="M0 0 C0.845625 0.433125 1.69125 0.86625 2.5625 1.3125 C4 3 4 3 4.5 6.5 C4 10 4 10 2.4375 12 C-1.07448448 13.44081415 -3.34971332 12.89656164 -7 12 C-7.77730469 11.49855469 -8.55460938 10.99710938 -9.35546875 10.48046875 C-14.00291223 7.87872417 -18.83740576 8.14639645 -24 9 C-28.38632405 11.33685195 -31.04684193 14.4630678 -33 19 C-34.46148336 25.52046422 -34.07559943 30.96941287 -31 37 C-28.05625293 40.54939838 -25.03057319 42.6276761 -20.46484375 43.46484375 C-13.75781814 43.71774818 -9.52464694 41.68309796 -4 38 C-0.4375 38.1875 -0.4375 38.1875 3 39 C5 42 5 42 5.1875 44.8125 C3.33352271 49.78896536 -0.43573254 51.58670916 -5 54 C-12.15627725 57.08702156 -21.49650554 57.4589634 -28.91796875 55.0546875 C-31.4167078 53.85257098 -33.69039508 52.53118252 -36 51 C-37.0725 50.319375 -38.145 49.63875 -39.25 48.9375 C-44.54981116 44.04653141 -47.55079659 37.28054614 -48.515625 30.234375 C-48.80761292 19.93137266 -46.91484879 11.217509 -39.77734375 3.53515625 C-29.08144868 -5.7032762 -12.0970536 -7.5295162 0 0 Z " fill="#FBFAFB" transform="translate(817,236)"/>
<path d="M0 0 C0.69790146 0.00285004 1.39580292 0.00570007 2.11485291 0.00863647 C2.90900101 0.00248322 3.70314911 -0.00367004 4.5213623 -0.01000977 C5.37455551 0.00436127 6.22774872 0.0187323 7.10679626 0.03353882 C7.98564987 0.03445526 8.86450348 0.0353717 9.76998901 0.03631592 C11.6268606 0.04235593 13.48372227 0.058114 15.34043884 0.08285522 C18.1893535 0.11938289 21.03696871 0.12387452 23.88609314 0.12338257 C25.6888388 0.1332128 27.49157563 0.14486939 29.29429626 0.15853882 C30.1495137 0.16076447 31.00473114 0.16299011 31.88586426 0.1652832 C37.90199423 0.26233053 37.90199423 0.26233053 40.13414001 2.49447632 C40.38414001 5.99447632 40.38414001 5.99447632 40.13414001 9.49447632 C37.34236433 12.28625201 35.50230429 11.80661116 31.59507751 11.90853882 C30.29312439 11.94721069 28.99117126 11.98588257 27.64976501 12.02572632 C26.2695614 12.05718395 24.88935297 12.08843123 23.50914001 12.11947632 C22.12109461 12.15765566 20.7330729 12.19670737 19.34507751 12.23666382 C15.94156817 12.33120574 12.53806836 12.41675529 9.13414001 12.49447632 C8.80414001 16.45447632 8.47414001 20.41447632 8.13414001 24.49447632 C9.97621033 24.45967163 11.81828064 24.42486694 13.71617126 24.38900757 C16.12631842 24.36087355 18.5364754 24.33357299 20.94664001 24.30697632 C22.16158142 24.2818396 23.37652283 24.25670288 24.62828064 24.23080444 C26.373349 24.21630249 26.373349 24.21630249 28.15367126 24.20150757 C29.22721863 24.18579712 30.30076599 24.17008667 31.40684509 24.15390015 C34.13414001 24.49447632 34.13414001 24.49447632 35.98448181 25.85653687 C37.62941355 28.20010174 37.5536818 29.69753105 37.13414001 32.49447632 C35.97080994 34.1187439 35.97080994 34.1187439 34.13414001 35.49447632 C31.49864197 35.92684937 31.49864197 35.92684937 28.37242126 36.00619507 C27.25415955 36.04164429 26.13589783 36.07709351 24.98374939 36.11361694 C23.8165033 36.13617554 22.6492572 36.15873413 21.44664001 36.18197632 C20.26779236 36.21613647 19.0889447 36.25029663 17.87437439 36.28549194 C14.96105777 36.36805557 12.04804536 36.43717954 9.13414001 36.49447632 C9.11432068 37.08986206 9.09450134 37.6852478 9.07408142 38.29867554 C8.97897876 40.98939784 8.86924159 43.6793278 8.75914001 46.36947632 C8.71273376 47.77519897 8.71273376 47.77519897 8.66539001 49.20932007 C8.6073822 50.55316772 8.6073822 50.55316772 8.54820251 51.92416382 C8.51678162 52.75158081 8.48536072 53.5789978 8.45298767 54.43148804 C8.13414001 56.49447632 8.13414001 56.49447632 6.13414001 58.49447632 C0.45065378 59.03576072 0.45065378 59.03576072 -1.86585999 58.49447632 C-4.62647478 55.52927983 -5.24301329 53.52214321 -5.25404358 49.51400757 C-5.26350006 48.52618286 -5.27295654 47.53835815 -5.28269958 46.52059937 C-5.27662689 45.46010376 -5.2705542 44.39960815 -5.26429749 43.30697632 C-5.26716766 42.21232056 -5.27003784 41.11766479 -5.272995 39.98983765 C-5.27503551 37.67659996 -5.26950661 35.36334501 -5.25697327 33.05014038 C-5.24092017 29.50775601 -5.25682318 25.96651267 -5.27601624 22.42416382 C-5.2740338 20.17676546 -5.27019013 17.92936782 -5.26429749 15.68197632 C-5.27037018 14.62148071 -5.27644287 13.56098511 -5.28269958 12.46835327 C-5.2732431 11.48052856 -5.26378662 10.49270386 -5.25404358 9.47494507 C-5.2516568 8.60764771 -5.24927002 7.74035034 -5.24681091 6.84677124 C-4.69339708 3.42955273 -3.50549988 0.92900147 0 0 Z " fill="#FCFBFC" transform="translate(514.8658599853516,232.50552368164063)"/>
<path d="M0 0 C2.11348969 1.5559973 2.89824325 2.42708838 3.36076355 5.03117371 C3.35410172 5.80616714 3.34743988 6.58116058 3.34057617 7.37963867 C3.34034958 8.26032516 3.34012299 9.14101166 3.33988953 10.04838562 C3.32440567 10.99534805 3.30892181 11.94231049 3.29296875 12.91796875 C3.28872391 13.89034988 3.28447906 14.86273102 3.28010559 15.86457825 C3.26330315 18.97249966 3.22564779 22.07977434 3.1875 25.1875 C3.1724552 27.29361043 3.15876644 29.39973102 3.14648438 31.50585938 C3.11339444 36.67082238 3.06160109 41.83530151 3 47 C3.76666992 46.98428955 4.53333984 46.9685791 5.32324219 46.95239258 C8.79875302 46.89001026 12.27414601 46.85099838 15.75 46.8125 C16.9565625 46.78736328 18.163125 46.76222656 19.40625 46.73632812 C20.56640625 46.72666016 21.7265625 46.71699219 22.921875 46.70703125 C23.99018555 46.6913208 25.05849609 46.67561035 26.15917969 46.65942383 C29.36708098 47.04400808 30.72058248 47.74450895 33 50 C33.5 52.4375 33.5 52.4375 33 55 C31.46289062 57.12695312 31.46289062 57.12695312 29 59 C26.22858117 59.39806287 23.86195576 59.56185389 21.09375 59.53125 C20.33203491 59.5350769 19.57031982 59.53890381 18.78552246 59.54284668 C17.17845332 59.54556313 15.57133976 59.53822044 13.96435547 59.52148438 C11.50778413 59.50006786 9.05413689 59.52129178 6.59765625 59.546875 C5.03384773 59.54423167 3.47004102 59.53910658 1.90625 59.53125 C1.17386108 59.53934692 0.44147217 59.54744385 -0.31311035 59.55578613 C-3.59093719 59.49567247 -5.57086558 59.33421428 -8.19386292 57.29139709 C-10.35703575 54.54703843 -10.50107516 53.27526018 -10.50170898 49.82006836 C-10.51108994 48.78897446 -10.52047089 47.75788055 -10.53013611 46.69554138 C-10.51890213 45.58816116 -10.50766815 44.48078094 -10.49609375 43.33984375 C-10.49754898 42.19842422 -10.49900421 41.0570047 -10.50050354 39.8809967 C-10.49884422 37.46938523 -10.4872794 35.05776321 -10.46655273 32.64624023 C-10.43758186 28.94794938 -10.44594727 25.25109001 -10.45898438 21.55273438 C-10.45274763 19.21093051 -10.44435719 16.86913118 -10.43359375 14.52734375 C-10.43652939 13.4179393 -10.43946503 12.30853485 -10.44248962 11.16551208 C-10.42980545 10.13757034 -10.41712128 9.1096286 -10.40405273 8.05053711 C-10.39864975 7.14548935 -10.39324677 6.24044159 -10.38768005 5.30796814 C-9.39554424 -0.59849474 -5.23688372 -0.56109468 0 0 Z " fill="#FCFBFC" transform="translate(751,157)"/>
<path d="M0 0 C2.11348969 1.5559973 2.89824325 2.42708838 3.36076355 5.03117371 C3.35410172 5.80616714 3.34743988 6.58116058 3.34057617 7.37963867 C3.34034958 8.26032516 3.34012299 9.14101166 3.33988953 10.04838562 C3.32440567 10.99534805 3.30892181 11.94231049 3.29296875 12.91796875 C3.28872391 13.89034988 3.28447906 14.86273102 3.28010559 15.86457825 C3.26330315 18.97249966 3.22564779 22.07977434 3.1875 25.1875 C3.1724552 27.29361043 3.15876644 29.39973102 3.14648438 31.50585938 C3.11339444 36.67082238 3.06160109 41.83530151 3 47 C4.21115479 46.98428955 4.21115479 46.98428955 5.44677734 46.96826172 C9.08948682 46.92680169 12.73214675 46.90070562 16.375 46.875 C18.28152344 46.84986328 18.28152344 46.84986328 20.2265625 46.82421875 C21.43828125 46.81777344 22.65 46.81132812 23.8984375 46.8046875 C25.01911621 46.79421387 26.13979492 46.78374023 27.29443359 46.77294922 C30 47 30 47 32 49 C32.5536316 55.08994759 32.5536316 55.08994759 30.96850586 57.69555664 C27.91415856 59.71953997 24.7364413 59.4477039 21.19140625 59.43359375 C20.0467112 59.44145653 20.0467112 59.44145653 18.87889099 59.44947815 C17.26587134 59.45589754 15.65280486 59.45456236 14.03979492 59.44604492 C11.5745074 59.43754142 9.11154251 59.46628257 6.64648438 59.49804688 C5.07812569 59.49965921 3.50976292 59.49908074 1.94140625 59.49609375 C0.83811729 59.51294472 0.83811729 59.51294472 -0.28746033 59.53013611 C-3.5761732 59.48547212 -5.5612232 59.34137117 -8.19485474 57.29238892 C-10.35641618 54.5473802 -10.50107524 53.27484511 -10.50170898 49.82006836 C-10.51108994 48.78897446 -10.52047089 47.75788055 -10.53013611 46.69554138 C-10.51890213 45.58816116 -10.50766815 44.48078094 -10.49609375 43.33984375 C-10.49754898 42.19842422 -10.49900421 41.0570047 -10.50050354 39.8809967 C-10.49884422 37.46938523 -10.4872794 35.05776321 -10.46655273 32.64624023 C-10.43758186 28.94794938 -10.44594727 25.25109001 -10.45898438 21.55273438 C-10.45274763 19.21093051 -10.44435719 16.86913118 -10.43359375 14.52734375 C-10.43652939 13.4179393 -10.43946503 12.30853485 -10.44248962 11.16551208 C-10.42980545 10.13757034 -10.41712128 9.1096286 -10.40405273 8.05053711 C-10.39864975 7.14548935 -10.39324677 6.24044159 -10.38768005 5.30796814 C-9.39554424 -0.59849474 -5.23688372 -0.56109468 0 0 Z " fill="#FDFCFD" transform="translate(703,157)"/>
<path d="M0 0 C0.66 0 1.32 0 2 0 C4.40670957 5.76414273 6.80900853 11.53010892 9.20825195 17.29736328 C10.02494524 19.2590492 10.8426468 21.22031566 11.66137695 23.18115234 C12.83810592 25.99987848 14.01119916 28.82009379 15.18359375 31.640625 C15.55028671 32.51680481 15.91697968 33.39298462 16.29478455 34.29571533 C16.6350618 35.11626404 16.97533905 35.93681274 17.32592773 36.78222656 C17.6257103 37.50170471 17.92549286 38.22118286 18.23435974 38.96246338 C19 41 19 41 20 45 C7.46 45 -5.08 45 -18 45 C-15.98168095 38.94504286 -13.89745474 33.1046586 -11.42578125 27.24609375 C-11.09708542 26.45977066 -10.76838959 25.67344757 -10.42973328 24.86329651 C-9.39368719 22.38674815 -8.35318065 19.91210389 -7.3125 17.4375 C-6.60321793 15.74426529 -5.89423091 14.05090697 -5.18554688 12.35742188 C-3.46043384 8.23684632 -1.73132184 4.11797046 0 0 Z " fill="#EA6720" transform="translate(213,188)"/>
<path d="M0 0 C3.375 0.875 3.375 0.875 5.375 2.875 C5.63569641 5.10740662 5.63569641 5.10740662 5.6496582 7.91967773 C5.65919022 8.97094345 5.66872223 10.02220917 5.67854309 11.10533142 C5.67763168 12.24490799 5.67672028 13.38448456 5.67578125 14.55859375 C5.68006638 15.72503922 5.6843515 16.89148468 5.68876648 18.09327698 C5.69451802 20.56388702 5.69500402 23.03451401 5.69067383 25.50512695 C5.6875159 29.29342442 5.71095686 33.08093992 5.73632812 36.86914062 C5.73860115 39.26562401 5.7393046 41.66210951 5.73828125 44.05859375 C5.747491 45.19614609 5.75670074 46.33369843 5.76618958 47.50572205 C5.75996078 48.56013992 5.75373199 49.6145578 5.74731445 50.70092773 C5.74794388 51.6297728 5.7485733 52.55861786 5.7492218 53.51560974 C5.375 55.875 5.375 55.875 4.07048035 57.67103577 C1.20364178 59.70678399 -1.24635768 59.29733029 -4.625 58.875 C-7.49701221 55.97444493 -8.00456379 53.81426558 -8.02905273 49.80273438 C-8.04173691 48.79488892 -8.05442108 47.78704346 -8.06748962 46.74865723 C-8.06455399 45.66628784 -8.06161835 44.58391846 -8.05859375 43.46875 C-8.0638356 42.35189819 -8.06907745 41.23504639 -8.07447815 40.08435059 C-8.08089896 37.72404817 -8.07956062 35.36371376 -8.07104492 33.00341797 C-8.0625316 29.38841942 -8.09130319 25.77499881 -8.12304688 22.16015625 C-8.12465885 19.86718797 -8.12408143 17.5742169 -8.12109375 15.28125 C-8.13232773 14.19888062 -8.14356171 13.11651123 -8.15513611 12.00134277 C-8.14575516 10.99349731 -8.13637421 9.98565186 -8.12670898 8.94726562 C-8.12654282 8.06220337 -8.12637665 7.17714111 -8.12620544 6.26525879 C-7.12173317 1.47491043 -4.73827291 -0.16338872 0 0 Z " fill="#FBFAFB" transform="translate(569.625,232.125)"/>
<path d="M0 0 C3.06303578 -0.08115993 6.12390815 -0.14057409 9.1875 -0.1875 C10.48397461 -0.22520508 10.48397461 -0.22520508 11.80664062 -0.26367188 C16.63622109 -0.31918429 20.17560994 -0.33468158 24 3 C24.5625 6 24.5625 6 24 9 C21.13348911 11.7541224 19.1603642 12.36846854 15.234375 12.29296875 C14.34492187 12.28330078 13.45546875 12.27363281 12.5390625 12.26367188 C11.61867188 12.23853516 10.69828125 12.21339844 9.75 12.1875 C8.34621094 12.16719727 8.34621094 12.16719727 6.9140625 12.14648438 C4.60912779 12.11120476 2.30448995 12.05739966 0 12 C0 8.04 0 4.08 0 0 Z " fill="#6E286E" transform="translate(523,343)"/>
<path d="M0 0 C2.75105422 -0.10812003 5.49785087 -0.18734945 8.25 -0.25 C9.02730469 -0.28351563 9.80460938 -0.31703125 10.60546875 -0.3515625 C16.37023855 -0.45010557 16.37023855 -0.45010557 19.546875 1.8203125 C21 4 21 4 21 7.125 C20 10 20 10 18.453125 11.171875 C14.90782312 12.36869665 11.44358963 12.2098351 7.75 12.125 C7.00492188 12.11597656 6.25984375 12.10695313 5.4921875 12.09765625 C3.66131941 12.07418358 1.83061762 12.03831525 0 12 C0 8.04 0 4.08 0 0 Z " fill="#6F2A6F" transform="translate(523,320)"/>
<path d="M0 0 C2.72772048 2.72772048 3.7460131 5.97005745 5.125 9.5 C5.40214844 10.18964844 5.67929687 10.87929688 5.96484375 11.58984375 C8 16.73287408 8 16.73287408 8 19 C3.05 19 -1.9 19 -7 19 C-6.10656817 14.53284086 -4.76463639 10.80385599 -2.9375 6.6875 C-2.65583984 6.04232422 -2.37417969 5.39714844 -2.08398438 4.73242188 C-1.3937257 3.15301642 -0.69746802 1.57623507 0 0 Z " fill="#783878" transform="translate(673,248)"/>
<path d="M0 0 C0.66 0 1.32 0 2 0 C4.31 5.94 6.62 11.88 9 18 C3.72 18 -1.56 18 -7 18 C-5.58452992 13.75358975 -4.10951236 9.73305558 -2.375 5.625 C-1.92898438 4.56539063 -1.48296875 3.50578125 -1.0234375 2.4140625 C-0.68570313 1.61742187 -0.34796875 0.82078125 0 0 Z " fill="#773577" transform="translate(591,324)"/>
<path d="M0 0 C2.61666628 2.61666628 3.71634007 5.64348017 5.125 9 C5.40214844 9.64195313 5.67929687 10.28390625 5.96484375 10.9453125 C8 15.73745382 8 15.73745382 8 18 C3.05 18 -1.9 18 -7 18 C-6.16546516 13.8273258 -5.14069206 10.62279637 -3.5 6.75 C-3.0565625 5.69296875 -2.613125 4.6359375 -2.15625 3.546875 C-1 1 -1 1 0 0 Z " fill="#753375" transform="translate(539,98)"/>
<path d="M0 0 C2.60332156 3.16063087 4.14038576 6.3431652 5.6875 10.125 C6.34298828 11.70667969 6.34298828 11.70667969 7.01171875 13.3203125 C8 16 8 16 8 18 C3.05 18 -1.9 18 -7 18 C-5.02989474 11.79416842 -2.74844552 5.90148454 0 0 Z " fill="#722E72" transform="translate(657,173)"/>
</svg>
