<svg version="1.1" id="svg10" xmlns:cc="http://creativecommons.org/ns#" xmlns:dc="http://purl.org/dc/elements/1.1/" xmlns:rdf="http://www.w3.org/1999/02/22-rdf-syntax-ns#" xmlns:svg="http://www.w3.org/2000/svg" xmlns="http://www.w3.org/2000/svg" xmlns:xlink="http://www.w3.org/1999/xlink" x="0px" y="0px" viewBox="0 0 264 80" style="enable-background:new 0 0 264 80;" xml:space="preserve">
 <style type="text/css">
  .st0{fill:#21317D;}
	.st1{fill:#ED1C24;}
 </style>
 <g id="g18" transform="matrix(1.3333333,0,0,-1.3333333,0,80)">
  <path id="path27502" class="st0" d="M74.8,4.3C74.8,4.3,74,4,72,4c-7.2,0-4.8,7.6-9.2,7.6h-1V4.2h-5.6v21.6h8.1
		c5.8,0,8.7-2,8.7-7.1c0-3.2-2.2-4.8-3.4-5.5c1.7-2.1,1.6-4.6,4.1-4.6h1L74.8,4.3z M63.7,15.8c2.3,0,3.9,0.9,3.9,2.7
		c0,1.8-1.3,2.8-3.5,2.8h-2.2v-5.5L63.7,15.8z">
  </path>
  <path id="path27506" class="st0" d="M92.8,14.5c1.1-0.8,1.9-2.2,1.9-4.1c0-4.6-3.4-6.2-7.4-6.2H77.1v21.6h9.1c4.4,0,7-1.6,7-5.9
		c0-3.7-2.3-4.2-3.5-4.2v-0.1C90.5,15.6,91.7,15.3,92.8,14.5 M84.9,17.2c1.9,0,2.6,0.7,2.6,2.1c0,1.3-1,2-3,2h-1.8v-4.1H84.9z
		 M85.5,8.6c1.8,0,2.7,0.6,2.7,2.3c0,1.7-1.2,2.4-2.8,2.4h-2.7V8.6H85.5z">
  </path>
  <path id="path27510" class="st0" d="M97.3,4.2v21.6h5.6V8.6h8.7V4.2L97.3,4.2z">
  </path>
  <path id="path27514" class="st1" d="M117.1,4.2v21.6h7.9c4.4,0,7-1.7,7-5.7c0-3.9-2.3-4.6-3.4-4.6v-0.1c1.4,0,4.8-1.2,4.8-5.3
		c0-4.5-3.6-6-7.6-6L117.1,4.2z M124.7,16.7c2.4,0,3.2,1.2,3.2,3c0,1.8-1.2,3-3.9,3h-3.1v-6H124.7z M125.1,7.3
		c2.2,0,4.1,0.7,4.1,3.3c0,2.4-1.8,3.3-4.1,3.3h-4.1V7.3L125.1,7.3z">
  </path>
  <path id="path27518" class="st1" d="M148.4,9.7h-7.9l-1.9-5.6h-4.1l8,21.6h3.9l7.9-21.6h-4L148.4,9.7z M141.6,12.8h5.9l-3,8.3
		L141.6,12.8z">
  </path>
  <path id="path27522" class="st1" d="M169.6,4.2l-8.5,14.6V4.2h-3.9v21.6h4.1l8.5-15v15h3.9V4.2H169.6z">
  </path>
  <path id="path27526" class="st1" d="M196.2,7.1c-2.8,0-2.9,4.7-5.2,7c-0.2,0.2-1.3,1.5-3.1,2l8.3,9.7h-5l-8.3-9.6v0.1v9.6h-3.9
		V14.9V9.3V4.2h3.9v5.1v1l2.4,2.8h0.2c4.6,0,3.1-9,9.4-9c1.3,0,2.1,0.2,2.1,0.2v2.9L196.2,7.1z">
  </path>
  <path id="path27530" class="st0" d="M12.9,44.6v13.7H2.1V25.8C2.1,33.8,6.5,40.8,12.9,44.6">
  </path>
  <path id="path27534" class="st0" d="M25.1,47.4V36.6c5.3-0.7,9.5-5.2,9.5-10.7c0-6-4.8-10.8-10.8-10.8c-6,0-10.8,4.8-10.8,10.8h0
		V7.1c3.2-1.8,6.9-2.9,10.8-2.9c12,0,21.7,9.7,21.7,21.7C45.4,37.3,36.4,46.8,25.1,47.4">
  </path>
  <path id="path27538" class="st1" d="M12.9,44.6C6.5,40.8,2.1,33.8,2.1,25.8v-20V1.5h10.8v2.8v2.8v18.8h0c0,5.5,4.1,10.1,9.5,10.7
		v10.9C19,47.2,15.7,46.2,12.9,44.6">
  </path>
 </g>
</svg>