<?xml version="1.0" encoding="UTF-8"?>
<svg version="1.1" xmlns="http://www.w3.org/2000/svg" width="185" height="68">
<path d="M0 0 C2.413125 -0.0825 4.82625 -0.165 7.3125 -0.25 C8.06829346 -0.28641602 8.82408691 -0.32283203 9.6027832 -0.36035156 C12.83213041 -0.4139794 14.55690651 -0.39568076 17.0078125 1.79296875 C18.4549443 5.0119824 17.55947488 7.58098687 17 11 C17.99 12.485 17.99 12.485 19 14 C19.26554687 13.32453125 19.53109375 12.6490625 19.8046875 11.953125 C20.15789062 11.06109375 20.51109375 10.1690625 20.875 9.25 C21.22304687 8.36828125 21.57109375 7.4865625 21.9296875 6.578125 C22.8646709 4.3259752 23.87780794 2.16350541 25 0 C27.31 0 29.62 0 32 0 C33.98 5.61 35.96 11.22 38 17 C38.33 11.39 38.66 5.78 39 0 C45 0 45 0 47.1171875 1.96875 C47.69726562 2.8040625 48.27734375 3.639375 48.875 4.5 C49.47054687 5.3353125 50.06609375 6.170625 50.6796875 7.03125 C51.11539063 7.6809375 51.55109375 8.330625 52 9 C52.33 6.03 52.66 3.06 53 0 C54.65 0 56.3 0 58 0 C58 7.26 58 14.52 58 22 C53 22 53 22 50.98046875 20.03125 C50.38878906 19.1959375 49.79710937 18.360625 49.1875 17.5 C48.58292969 16.6646875 47.97835937 15.829375 47.35546875 14.96875 C46.68451172 13.99421875 46.68451172 13.99421875 46 13 C45.67 15.97 45.34 18.94 45 22 C41.04 22 37.08 22 33 22 C32.67 20.35 32.34 18.7 32 17 C29.69 17 27.38 17 25 17 C24.67 18.65 24.34 20.3 24 22 C22.02 22 20.04 22 18 22 C17.67 21.34 17.34 20.68 17 20 C16.01 20.66 15.02 21.32 14 22 C10.64453125 22.1953125 10.64453125 22.1953125 6.8125 22.125 C4.564375 22.08375 2.31625 22.0425 0 22 C0 14.74 0 7.48 0 0 Z M6 5 C6 5.99 6 6.98 6 8 C7.65 8 9.3 8 11 8 C11 7.01 11 6.02 11 5 C9.35 5 7.7 5 6 5 Z M28 8 C27.67 9.65 27.34 11.3 27 13 C27.99 13 28.98 13 30 13 C29.67 11.35 29.34 9.7 29 8 C28.67 8 28.34 8 28 8 Z M6 13 C6 14.32 6 15.64 6 17 C7.65 17 9.3 17 11 17 C11.33 15.68 11.66 14.36 12 13 C10.02 13 8.04 13 6 13 Z M18 17 C19 19 19 19 19 19 Z " fill="#002EDC" transform="translate(106,26)"/>
<path d="M0 0 C2.8125 -0.3125 2.8125 -0.3125 6 0 C7.88599343 2.38892501 9 3.91851558 9 7 C9.66 7 10.32 7 11 7 C11.66 4.69 12.32 2.38 13 0 C20.92 0 28.84 0 37 0 C36.67 1.65 36.34 3.3 36 5 C32.7 5 29.4 5 26 5 C26 5.99 26 6.98 26 8 C28.97 8 31.94 8 35 8 C35 9.65 35 11.3 35 13 C32.03 13 29.06 13 26 13 C26 13.99 26 14.98 26 16 C29.3 16 32.6 16 36 16 C36 17.98 36 19.96 36 22 C33.52076199 22.02685095 31.0418116 22.04676547 28.5625 22.0625 C27.85544922 22.07087891 27.14839844 22.07925781 26.41992188 22.08789062 C24.61306441 22.09653588 22.80612397 22.05220011 21 22 C18.88074396 19.88074396 19.58168983 15.3803907 19.4375 12.4375 C19.39431641 11.63119141 19.35113281 10.82488281 19.30664062 9.99414062 C19.20024738 7.99631195 19.09959112 5.9981793 19 4 C15.10214991 10.08409811 13.34467627 14.76179827 13 22 C11.02 22 9.04 22 7 22 C6.91363281 21.39414062 6.82726563 20.78828125 6.73828125 20.1640625 C5.7322595 14.16485021 3.94339087 9.36480645 1.0234375 4.03125 C0 2 0 2 0 0 Z " fill="#002EDC" transform="translate(44,26)"/>
<path d="M0 0 C-1.44567137 4.05689205 -3.41758355 7.33569847 -5.84375 10.88671875 C-6.39838928 11.70134331 -6.39838928 11.70134331 -6.9642334 12.53242493 C-7.74195832 13.67265936 -8.52198738 14.81132528 -9.30419922 15.94848633 C-10.50118929 17.68922954 -11.69059001 19.43496779 -12.87890625 21.18164062 C-18.69820253 29.69820253 -18.69820253 29.69820253 -21 32 C-24.39465335 32.53249464 -26.85925813 32.72416522 -29.83984375 30.83203125 C-31.6485475 29.29245628 -33.33462355 27.69319897 -35 26 C-35.928125 25.071875 -36.85625 24.14375 -37.8125 23.1875 C-38.8953125 22.1046875 -38.8953125 22.1046875 -40 21 C-40.66 20.67 -41.32 20.34 -42 20 C-42 19.34 -42 18.68 -42 18 C-38.28985899 16.76328633 -34.85561242 16.43631397 -31 17 C-28.1899654 18.79363911 -26.49059532 20.01880935 -25 23 C-23.97060303 21.95489258 -23.97060303 21.95489258 -22.92041016 20.88867188 C-20.37972873 18.31186648 -17.83249622 15.7416235 -15.28320312 13.17333984 C-14.17950702 12.05956877 -13.07761027 10.94401168 -11.97753906 9.82666016 C-10.39854926 8.22348763 -8.81325886 6.62679089 -7.2265625 5.03125 C-6.73378815 4.52815308 -6.24101379 4.02505615 -5.73330688 3.50671387 C-2.22774341 0 -2.22774341 0 0 0 Z " fill="#EB1F48" transform="translate(42,18)"/>
<path d="M0 0 C1.65 0 3.3 0 5 0 C5.33 1.98 5.66 3.96 6 6 C6.86625 5.01 7.7325 4.02 8.625 3 C11.12345413 0.46585366 11.66854671 0.03682814 15.375 -0.375 C16.24125 -0.25125 17.1075 -0.1275 18 0 C16.34832443 3.5786304 14.21713508 6.74820188 12 10 C12.433125 10.53109375 12.86625 11.0621875 13.3125 11.609375 C13.869375 12.31578125 14.42625 13.0221875 15 13.75 C15.556875 14.44609375 16.11375 15.1421875 16.6875 15.859375 C18 18 18 18 18 22 C15.875 22.4375 15.875 22.4375 13 22 C10.723853 19.87310854 8.8541278 17.4976567 7 15 C6.34 17.31 5.68 19.62 5 22 C3.35 22 1.7 22 0 22 C0 14.74 0 7.48 0 0 Z " fill="#002EDC" transform="translate(167,26)"/>
<path d="M0 0 C1.08667969 0.02707031 2.17335938 0.05414062 3.29296875 0.08203125 C4.54013672 0.13423828 4.54013672 0.13423828 5.8125 0.1875 C5.8125 1.8375 5.8125 3.4875 5.8125 5.1875 C3.1725 5.5175 0.5325 5.8475 -2.1875 6.1875 C-1.63320312 6.44144531 -1.07890625 6.69539063 -0.5078125 6.95703125 C0.21664062 7.30121094 0.94109375 7.64539062 1.6875 8 C2.40679687 8.33644531 3.12609375 8.67289063 3.8671875 9.01953125 C5.8125 10.1875 5.8125 10.1875 7.8125 13.1875 C7.73762071 16.78170569 7.4904536 18.53141587 4.875 21.0625 C0.50883318 22.66639802 -3.58646121 22.42871951 -8.1875 22.1875 C-8.1875 20.2075 -8.1875 18.2275 -8.1875 16.1875 C-5.2175 16.1875 -2.2475 16.1875 0.8125 16.1875 C-0.79588293 12.97073414 -3.97343279 12.54079146 -7.1875 11.1875 C-9.1875 9.1875 -9.1875 9.1875 -9.5 6.25 C-9.1875 3.1875 -9.1875 3.1875 -8.0546875 1.5078125 C-5.35316496 -0.40246913 -3.26526508 -0.10533113 0 0 Z " fill="#002EDC" transform="translate(90.1875,25.8125)"/>
</svg>
