<svg xmlns="http://www.w3.org/2000/svg" width="1500" height="400" fill="none" viewBox="0 0 45 12"><path fill="#008940" fill-rule="evenodd" d="M42.404.952 44.93 5.97l-5.312 5.022z" clip-rule="evenodd"/><path fill="#F36717" fill-rule="evenodd" d="m40.653.952 2.524 5.018-5.31 5.022z" clip-rule="evenodd"/><path fill="#21317D" fill-rule="evenodd" d="M.135 9.166 2.655.088h4.027c1.26 0 2.101.2 2.53.61q.634.608.249 2.006c-.154.552-.389 1.014-.714 1.38q-.48.548-1.264.867.66.16.85.634.187.474-.043 1.382l-.305 1.268-.003.034c-.087.355-.06.546.083.561l-.093.336H5.247q.016-.321.044-.566.031-.246.069-.377l.254-.907q.194-.707.017-.99c-.12-.195-.388-.29-.813-.29H3.674L2.8 9.166zM4.24 3.991h1.227q.646.001.942-.19c.198-.127.343-.343.429-.656q.131-.477-.06-.666-.192-.191-.908-.19H4.713zM16.941 2.466l-1.857 6.7h-2.257l.275-.982c-.396.39-.802.686-1.212.876a3 3 0 0 1-1.287.287q-.563 0-.953-.202a1.3 1.3 0 0 1-.586-.606q-.175-.353-.147-.873c.02-.34.142-.917.366-1.723l.962-3.477h2.47l-.962 3.46c-.141.508-.174.863-.105 1.057q.107.294.57.296.465.001.79-.343.325-.342.515-1.02l.952-3.45zM16.044 9.166l2.52-9.079h3.46q1.147-.002 1.778.145c.421.094.75.25.996.466q.459.424.574 1.057c.073.421.03.913-.13 1.49q-.425 1.52-1.481 2.336-1.06.806-2.625.806h-1.62l-.77 2.779zm4.086-4.997H21c.564 0 .958-.069 1.19-.204.225-.135.385-.378.482-.72q.146-.523-.075-.728-.213-.203-1.082-.204h-.869zM28.147 9.166l.025-.636a4.5 4.5 0 0 1-1.207.664 3.8 3.8 0 0 1-1.293.217c-.702 0-1.189-.19-1.471-.559-.278-.37-.324-.897-.134-1.572q.273-.999.973-1.47c.463-.318 1.239-.544 2.327-.69.138-.022.322-.04.553-.068.805-.093 1.257-.307 1.353-.658q.08-.287-.099-.418-.174-.135-.638-.134c-.257 0-.464.053-.633.164a1 1 0 0 0-.381.504h-2.407a2.78 2.78 0 0 1 1.328-1.705c.665-.387 1.54-.574 2.627-.574q.765-.002 1.37.151c.405.1.7.241.892.413q.355.32.416.725.066.404-.145 1.157l-1.036 3.735a.7.7 0 0 0-.021.331.4.4 0 0 0 .135.234l-.055.19zm.599-2.99a9 9 0 0 1-1.025.317q-1 .267-1.121.71c-.056.19-.033.336.06.446q.136.158.472.158.616 0 .985-.307.367-.31.558-.981c.023-.096.042-.165.055-.216zM30.645 11.806l.547-1.983h.706c.237 0 .423-.047.554-.132.134-.088.225-.237.277-.437q.04-.132.053-.287c.008-.111.008-.23 0-.365l-.376-6.136h2.499l-.039 4.065 2.182-4.065h2.325l-3.858 6.667q-.656 1.118-.958 1.537-.3.416-.572.635a2.1 2.1 0 0 1-.79.426q-.433.128-1.314.128c-.17 0-.365-.005-.576-.015q-.317-.011-.66-.038" clip-rule="evenodd"/></svg>